<?xml version="1.0" encoding="UTF-8"?>
<svg xmlns="http://www.w3.org/2000/svg" xmlns:xlink="http://www.w3.org/1999/xlink" width="382.12pt" height="265.46pt" viewBox="0 0 382.12 265.46" version="1.1">
<defs>
<clipPath id="clip1">
  <path d="M 350 164 L 382.121094 164 L 382.121094 221 L 350 221 Z M 350 164 "/>
</clipPath>
<clipPath id="clip2">
  <path d="M 0 240 L 18 240 L 18 265.460938 L 0 265.460938 Z M 0 240 "/>
</clipPath>
<clipPath id="clip3">
  <path d="M 118 240 L 139 240 L 139 265.460938 L 118 265.460938 Z M 118 240 "/>
</clipPath>
<clipPath id="clip4">
  <path d="M 244 239 L 262 239 L 262 265.460938 L 244 265.460938 Z M 244 239 "/>
</clipPath>
</defs>
<g id="surface1">
<path style=" stroke:none;fill-rule:evenodd;fill:rgb(91.799927%,32.199097%,14.498901%);fill-opacity:1;" d="M 177.566406 54.878906 C 180.707031 51.402344 180.707031 51.402344 183.683594 54.605469 C 183.953125 54.894531 184.277344 55.148438 184.492188 55.472656 C 184.855469 56.027344 186.03125 56.476563 185.4375 57.125 C 184.835938 57.785156 183.804688 58.394531 182.652344 57.71875 C 181.015625 56.746094 179.332031 55.859375 177.566406 54.878906 "/>
<path style=" stroke:none;fill-rule:evenodd;fill:rgb(91.799927%,33.299255%,14.898682%);fill-opacity:1;" d="M 167.617188 65.101563 C 169.054688 65.972656 170.535156 66.738281 171.851563 67.738281 C 172.359375 68.128906 171.585938 68.671875 171.308594 69.101563 C 170.898438 69.730469 170.4375 70.261719 169.570313 69.839844 C 168.71875 69.425781 167.855469 69.039063 167.011719 68.605469 C 166.535156 68.359375 165.472656 68.449219 165.847656 67.582031 C 166.222656 66.691406 166.65625 65.691406 167.617188 65.101563 "/>
<path style=" stroke:none;fill-rule:evenodd;fill:rgb(91.398621%,30.999756%,14.099121%);fill-opacity:1;" d="M 197.574219 0.00390625 C 200.46875 0.613281 203.386719 1.15625 206.257813 1.855469 C 221.835938 5.632813 234.144531 14.238281 243.582031 27.125 C 244.664063 28.597656 244.585938 29.175781 242.882813 29.984375 C 228.082031 36.972656 213.328125 44.046875 198.574219 51.125 C 197.625 51.582031 196.917969 51.589844 195.96875 51.042969 C 193.011719 49.34375 190.015625 47.675781 186.941406 46.210938 C 185.636719 45.59375 185.957031 45.144531 186.53125 44.3125 C 187.640625 42.695313 188.871094 41.132813 189.464844 38.769531 C 186.71875 39.683594 185.421875 41.859375 183.65625 43.410156 C 182.597656 44.324219 182.09375 46.144531 180.082031 45.527344 C 179.671875 45.40625 179.375 45.84375 179.480469 46.316406 C 180.214844 49.71875 176.75 50.964844 175.746094 53.492188 C 175.503906 54.105469 174.605469 53.390625 174.050781 53.15625 C 171.703125 52.1875 169.355469 51.234375 167.039063 50.199219 C 163 48.390625 158.664063 49.65625 154.507813 48.925781 C 152.789063 48.617188 152.230469 50.035156 152.882813 51.679688 C 153.945313 54.363281 155.894531 56.367188 158.03125 58.164063 C 160.171875 59.945313 162.421875 61.601563 164.710938 63.183594 C 165.796875 63.941406 165.949219 64.542969 164.902344 65.3125 C 163.6875 66.203125 163.363281 68.226563 161.347656 68.105469 C 161.207031 68.097656 160.929688 68.238281 160.9375 68.273438 C 161.492188 71.617188 157.695313 73.148438 157.617188 76.484375 C 159.214844 75.820313 160.140625 74.550781 161.171875 73.449219 C 161.773438 72.800781 162.242188 72.511719 162.800781 73.433594 C 162.839844 73.503906 162.902344 73.554688 162.957031 73.613281 C 166.152344 76.878906 166.144531 76.878906 164.269531 81.042969 C 163.875 81.90625 163.484375 82.78125 163.152344 83.675781 C 162.714844 84.867188 162.128906 86.140625 163.257813 87.242188 C 164.371094 88.3125 165.773438 88.617188 167.238281 88.082031 C 169.921875 87.101563 172.585938 86.074219 175.238281 85.019531 C 180.035156 83.113281 184.828125 81.214844 189.59375 79.230469 C 190.6875 78.773438 191.675781 78.710938 192.785156 79.046875 C 202.300781 81.867188 211.800781 84.734375 221.359375 87.414063 C 223.050781 87.894531 223.292969 88.566406 222.914063 90.023438 C 222.675781 90.960938 221.816406 92.121094 222.964844 92.839844 C 224.296875 93.679688 225.78125 94.21875 227.464844 93.457031 C 229.882813 92.367188 231.8125 90.269531 234.777344 90.234375 C 235.679688 90.222656 235.617188 88.480469 236.730469 87.886719 C 238.621094 86.886719 240.285156 85.472656 242.085938 84.304688 C 243.535156 83.359375 243.300781 82.398438 242.199219 81.433594 C 240.902344 80.296875 239.34375 80.070313 237.707031 80.457031 C 236.707031 80.695313 235.71875 81.015625 234.75 81.371094 C 233.671875 81.765625 232.902344 81.847656 232.695313 80.363281 C 232.371094 78.113281 230.613281 77.089844 228.792969 76.203125 C 227.359375 75.492188 226.398438 76.355469 225.441406 77.269531 C 222 80.566406 221.992188 80.554688 218.097656 78.007813 C 214.097656 75.398438 210.097656 72.792969 205.839844 70.015625 C 220.335938 58.976563 234.6875 48.039063 249.191406 37 C 251.535156 41.453125 253.03125 46.203125 253.984375 51.089844 C 260.609375 84.933594 240.851563 116.882813 207.703125 126.066406 C 172.949219 135.683594 136.277344 113.464844 128.605469 78.132813 C 120.859375 42.472656 143.433594 8.105469 179.210938 1.070313 C 180.867188 0.742188 182.632813 0.886719 184.171875 0.00390625 C 188.640625 0.00390625 193.105469 0.00390625 197.574219 0.00390625 "/>
<path style=" stroke:none;fill-rule:nonzero;fill:rgb(12.5%,11.399841%,11.399841%);fill-opacity:1;" d="M 28.738281 173.695313 L 11.144531 173.695313 L 11.144531 186.351563 L 25.234375 186.351563 L 25.234375 195.429688 L 11.144531 195.429688 L 11.144531 220.027344 L 0 220.027344 L 0 164.699219 L 30.011719 164.699219 L 28.738281 173.695313 "/>
<path style=" stroke:none;fill-rule:nonzero;fill:rgb(12.5%,11.399841%,11.399841%);fill-opacity:1;" d="M 82.667969 210.632813 C 81.234375 215.011719 75.824219 221.0625 63.882813 221.0625 C 55.445313 221.0625 49.234375 218.515625 46.128906 213.660156 C 44.296875 210.792969 43.742188 208.566406 43.742188 203.230469 L 43.742188 164.699219 L 55.128906 164.699219 L 55.128906 201.082031 C 55.128906 204.507813 55.445313 206.496094 56.082031 207.6875 C 57.355469 210.160156 59.980469 211.507813 63.644531 211.507813 C 68.5 211.507813 71.605469 209.121094 72.082031 205.0625 C 72.242188 203.867188 72.242188 203.074219 72.242188 200.125 L 72.242188 164.699219 L 83.546875 164.699219 L 83.546875 201.957031 C 83.546875 207.210938 83.46875 208.246094 82.667969 210.632813 "/>
<path style=" stroke:none;fill-rule:nonzero;fill:rgb(12.5%,11.399841%,11.399841%);fill-opacity:1;" d="M 131.082031 220.027344 L 101.859375 220.027344 L 101.859375 164.699219 L 113.242188 164.699219 L 113.242188 210.792969 L 133.070313 210.792969 L 131.082031 220.027344 "/>
<path style=" stroke:none;fill-rule:nonzero;fill:rgb(12.5%,11.399841%,11.399841%);fill-opacity:1;" d="M 176.179688 220.027344 L 146.964844 220.027344 L 146.964844 164.699219 L 158.347656 164.699219 L 158.347656 210.792969 L 178.167969 210.792969 L 176.179688 220.027344 "/>
<path style=" stroke:none;fill-rule:nonzero;fill:rgb(12.5%,11.399841%,11.399841%);fill-opacity:1;" d="M 232.984375 221.222656 C 226.691406 221.222656 219.6875 219.390625 214.113281 216.207031 L 218.253906 207.53125 C 223.429688 210.234375 227.882813 211.992188 233.460938 211.992188 C 239.832031 211.992188 243.171875 209.363281 243.171875 204.421875 C 243.171875 200.84375 240.863281 198.617188 235.929688 197.261719 L 229.796875 195.589844 C 224.304688 194.078125 220.882813 191.925781 218.886719 188.585938 C 217.378906 186.113281 216.578125 183.25 216.578125 180.144531 C 216.578125 170.03125 224.699219 163.027344 236.410156 163.027344 C 243.171875 163.027344 250.015625 165.09375 254.875 168.601563 L 249.621094 176.5625 C 244.609375 173.539063 240.863281 172.34375 236.726563 172.34375 C 232.1875 172.34375 228.996094 174.964844 228.996094 178.710938 C 228.996094 181.578125 230.515625 183.011719 235.132813 184.28125 L 241.820313 186.113281 C 250.898438 188.585938 255.832031 194.394531 255.832031 202.59375 C 255.832031 213.824219 246.753906 221.222656 232.984375 221.222656 "/>
<path style=" stroke:none;fill-rule:nonzero;fill:rgb(12.5%,11.399841%,11.399841%);fill-opacity:1;" d="M 288.167969 186.511719 C 287.605469 183.96875 285.933594 176.71875 285.933594 176.71875 C 285.933594 176.71875 284.34375 183.25 283.308594 187.390625 C 282.273438 191.367188 281.554688 193.996094 280.363281 197.660156 L 291.191406 197.660156 C 291.191406 197.660156 289.359375 191.847656 288.167969 186.511719 Z M 297.796875 220.027344 L 293.898438 206.894531 L 277.65625 206.894531 L 273.757813 220.027344 L 262.132813 220.027344 L 280.28125 164.539063 L 292.304688 164.539063 L 309.742188 220.027344 L 297.796875 220.027344 "/>
<path style=" stroke:none;fill-rule:nonzero;fill:rgb(12.5%,11.399841%,11.399841%);fill-opacity:1;" d="M 320.816406 220.027344 L 320.816406 164.699219 L 332.4375 164.699219 L 332.4375 220.027344 L 320.816406 220.027344 "/>
<g clip-path="url(#clip1)" clip-rule="nonzero">
<path style=" stroke:none;fill-rule:nonzero;fill:rgb(12.5%,11.399841%,11.399841%);fill-opacity:1;" d="M 380.136719 220.027344 L 350.914063 220.027344 L 350.914063 164.699219 L 362.300781 164.699219 L 362.300781 210.792969 L 382.121094 210.792969 L 380.136719 220.027344 "/>
</g>
<g clip-path="url(#clip2)" clip-rule="nonzero">
<path style=" stroke:none;fill-rule:nonzero;fill:rgb(12.5%,11.399841%,11.399841%);fill-opacity:1;" d="M 15.789063 262.449219 C 14.519531 264.007813 12.449219 265.386719 8.613281 265.386719 C 4.84375 265.386719 2.34375 264.191406 1.074219 261.910156 C 0.421875 260.75 0.28125 260.058594 0.28125 257.449219 L 0.28125 240.015625 L 3.789063 240.015625 L 3.789063 256.144531 C 3.789063 257.957031 3.972656 260.171875 4.699219 261.003906 C 5.386719 261.800781 6.652344 262.414063 8.648438 262.414063 C 10.535156 262.414063 11.90625 261.835938 12.710938 260.789063 C 13.324219 259.988281 13.609375 258.648438 13.609375 256.652344 L 13.609375 240.015625 L 17.09375 240.015625 L 17.09375 257.160156 C 17.09375 260.3125 16.910156 261.074219 15.789063 262.449219 "/>
</g>
<path style=" stroke:none;fill-rule:nonzero;fill:rgb(12.5%,11.399841%,11.399841%);fill-opacity:1;" d="M 57.722656 264.988281 L 51.160156 251.726563 C 49.890625 249.152344 48.589844 246.324219 48.121094 244.875 L 47.90625 244.910156 C 48.082031 247.046875 48.15625 249.550781 48.1875 251.867188 L 48.332031 264.988281 L 44.816406 264.988281 L 44.816406 240.015625 L 48.875 240.015625 L 55.839844 253.785156 C 56.890625 255.859375 58.121094 259.078125 58.304688 259.773438 L 58.519531 259.695313 C 58.445313 258.972656 58.160156 255.023438 58.160156 252.269531 L 58.085938 240.015625 L 61.457031 240.015625 L 61.457031 264.988281 L 57.722656 264.988281 "/>
<path style=" stroke:none;fill-rule:nonzero;fill:rgb(12.5%,11.399841%,11.399841%);fill-opacity:1;" d="M 89.960938 264.988281 L 89.960938 240.015625 L 93.507813 240.015625 L 93.507813 264.988281 L 89.960938 264.988281 "/>
<g clip-path="url(#clip3)" clip-rule="nonzero">
<path style=" stroke:none;fill-rule:nonzero;fill:rgb(12.5%,11.399841%,11.399841%);fill-opacity:1;" d="M 130.265625 265.0625 L 126.859375 265.0625 L 118.523438 240.015625 L 122.359375 240.015625 L 127.148438 255.058594 C 127.4375 255.925781 127.835938 257.269531 128.09375 258.355469 C 128.269531 259.15625 128.414063 259.734375 128.492188 260.242188 L 128.703125 260.242188 C 128.8125 259.734375 128.960938 259.261719 129.214844 258.355469 C 129.503906 257.339844 129.789063 256.398438 130.230469 255.023438 L 135.121094 240.015625 L 138.746094 240.015625 L 130.265625 265.0625 "/>
</g>
<path style=" stroke:none;fill-rule:nonzero;fill:rgb(12.5%,11.399841%,11.399841%);fill-opacity:1;" d="M 163.15625 264.988281 L 163.15625 240.015625 L 176.753906 240.015625 L 176.277344 242.882813 L 166.675781 242.882813 L 166.675781 250.488281 L 174.722656 250.488281 L 174.722656 253.425781 L 166.710938 253.425781 L 166.710938 261.980469 L 177.152344 261.980469 L 177.152344 264.988281 L 163.15625 264.988281 "/>
<path style=" stroke:none;fill-rule:nonzero;fill:rgb(12.5%,11.399841%,11.399841%);fill-opacity:1;" d="M 212.792969 243.347656 C 212.070313 243.0625 211.054688 242.882813 209.746094 242.882813 L 207.140625 242.882813 L 207.140625 251.582031 L 209.566406 251.582031 C 211.777344 251.582031 213.011719 251.21875 213.882813 250.382813 C 214.640625 249.660156 215.113281 248.460938 215.113281 247.015625 C 215.113281 245.273438 214.171875 243.894531 212.792969 243.347656 Z M 215.761719 264.988281 C 215.042969 263.578125 214.714844 262.992188 213.699219 261.289063 C 211.777344 258.105469 211.160156 257.050781 209.390625 255.058594 C 208.738281 254.332031 208.1875 253.972656 207.140625 253.933594 L 207.140625 264.988281 L 203.660156 264.988281 L 203.660156 240.015625 L 210.65625 240.015625 C 213.625 240.015625 215.363281 240.707031 216.5625 241.828125 C 217.6875 242.882813 218.773438 244.546875 218.773438 246.976563 C 218.773438 250.851563 216.273438 253.972656 212.101563 253.824219 C 213.265625 254.765625 213.847656 255.5625 214.28125 256.144531 C 214.789063 256.832031 215.550781 257.921875 216.378906 259.226563 C 217.46875 260.929688 219.496094 264.191406 220.003906 264.988281 L 215.761719 264.988281 "/>
<g clip-path="url(#clip4)" clip-rule="nonzero">
<path style=" stroke:none;fill-rule:nonzero;fill:rgb(12.5%,11.399841%,11.399841%);fill-opacity:1;" d="M 252.335938 265.460938 C 249.476563 265.460938 246.71875 264.738281 244.289063 263.246094 L 245.667969 260.566406 C 247.84375 261.910156 249.90625 262.632813 252.40625 262.632813 C 255.671875 262.632813 257.8125 260.964844 257.8125 258.28125 C 257.8125 256.257813 256.464844 254.84375 253.675781 254.042969 L 251.070313 253.285156 C 247.300781 252.195313 245.167969 250.382813 245.167969 246.832031 C 245.167969 242.519531 248.492188 239.582031 253.421875 239.582031 C 256.179688 239.582031 258.863281 240.378906 261.074219 241.933594 L 259.515625 244.40625 C 257.191406 242.992188 255.632813 242.445313 253.570313 242.445313 C 250.777344 242.445313 249.039063 243.894531 249.039063 246.214844 C 249.039063 247.992188 250.054688 249.003906 252.734375 249.804688 L 255.671875 250.675781 C 259.003906 251.652344 261.761719 253.824219 261.761719 257.699219 C 261.761719 261.183594 258.898438 265.460938 252.335938 265.460938 "/>
</g>
<path style=" stroke:none;fill-rule:nonzero;fill:rgb(12.5%,11.399841%,11.399841%);fill-opacity:1;" d="M 288.40625 264.988281 L 288.40625 240.015625 L 291.953125 240.015625 L 291.953125 264.988281 L 288.40625 264.988281 "/>
<path style=" stroke:none;fill-rule:nonzero;fill:rgb(12.5%,11.399841%,11.399841%);fill-opacity:1;" d="M 333.335938 242.917969 L 326.84375 242.917969 L 326.84375 264.988281 L 323.402344 264.988281 L 323.402344 242.917969 L 316.914063 242.917969 L 316.914063 240.015625 L 333.695313 240.015625 L 333.335938 242.917969 "/>
<path style=" stroke:none;fill-rule:nonzero;fill:rgb(12.5%,11.399841%,11.399841%);fill-opacity:1;" d="M 367.351563 255.058594 L 367.351563 264.988281 L 363.730469 264.988281 L 363.730469 254.988281 L 355.828125 240.015625 L 360.101563 240.015625 L 364.234375 248.535156 C 364.738281 249.585938 365.210938 250.636719 365.609375 251.761719 C 366.046875 250.746094 366.519531 249.695313 367.0625 248.570313 L 371.265625 240.015625 L 375.324219 240.015625 L 367.351563 255.058594 "/>
</g>
</svg>
